<?xml version="1.0" standalone="no"?>
<svg viewBox="0 0 200 200" xmlns="http://www.w3.org/2000/svg">
  <path fill="#FF0066" d="M21.6,-41.8C28.8,-29,35.9,-24.3,39.6,-17.7C43.2,-11,43.4,-2.4,41,5C38.6,12.4,33.6,18.6,30.7,32.4C27.8,46.2,27,67.7,21.1,67.3C15.3,66.9,4.3,44.6,-11,39.3C-26.4,34,-46.2,45.6,-57.9,43.7C-69.6,41.8,-73.1,26.4,-71.2,12.7C-69.3,-0.9,-61.8,-12.9,-57.9,-28.4C-53.9,-44,-53.3,-63.1,-44.3,-75C-35.2,-87,-17.6,-91.8,-5.2,-83.7C7.2,-75.6,14.4,-54.6,21.6,-41.8Z" transform="translate(100 100)" />
</svg>
